<?xml version="1.0" encoding="UTF-8" standalone="no"?>
<!DOCTYPE svg PUBLIC "-//W3C//DTD SVG 1.1//EN" "http://www.w3.org/Graphics/SVG/1.1/DTD/svg11.dtd">
<svg width="100%" height="100%" viewBox="0 0 256 256" version="1.1" xmlns="http://www.w3.org/2000/svg" xmlns:xlink="http://www.w3.org/1999/xlink" xml:space="preserve" xmlns:serif="http://www.serif.com/" style="fill-rule:evenodd;clip-rule:evenodd;stroke-linejoin:round;stroke-miterlimit:2;">
    <g transform="matrix(1,0,0,1,-3415,0)">
        <g id="Artboard3" transform="matrix(0.554959,0,0,0.474074,1519.44,0)">
            <rect x="3415.67" y="0" width="461.295" height="540" style="fill:rgb(10,18,36);"/>
            <g transform="matrix(-0.772543,0,0,0.791016,3987.96,-183.258)">
                <path d="M293.499,773.007C293.499,773.007 324.607,727.548 380.967,673.222C416.348,639.116 455.86,598.358 503.504,573.007C557.184,544.445 610.032,529.493 669.61,543.007C669.61,543.007 679.35,530.039 678.357,513.007C676.454,480.38 647.597,432.842 529.662,433.007C529.662,433.007 512.173,383.007 372.22,383.007C372.22,383.007 294.227,379.64 267.259,373.007L284.752,403.007L223.525,403.007L223.525,373.007L206.031,373.007L206.031,773.007L293.499,773.007Z" style="fill:rgb(236,31,37);"/>
            </g>
        </g>
    </g>
</svg>
