<?xml version="1.0" encoding="UTF-8" standalone="no"?>
<!DOCTYPE svg PUBLIC "-//W3C//DTD SVG 1.1//EN" "http://www.w3.org/Graphics/SVG/1.1/DTD/svg11.dtd">
<svg width="100%" height="100%" viewBox="0 0 541 400" version="1.1" xmlns="http://www.w3.org/2000/svg" xmlns:xlink="http://www.w3.org/1999/xlink" xml:space="preserve" xmlns:serif="http://www.serif.com/" style="fill-rule:evenodd;clip-rule:evenodd;stroke-linejoin:round;stroke-miterlimit:2;">
    <g transform="matrix(1,0,0,1,-2207.92,-1521.38)">
        <g transform="matrix(1.95077,0,0,1.89315,-1853.26,-1249.56)">
            <g transform="matrix(-0.586066,0,0,0.528221,2487.62,1262.94)">
                <path d="M307.468,780L220,780L220,380L237.494,380L237.494,410L298.721,410L281.227,380C308.196,386.633 386.189,390 386.189,390C526.142,390 543.63,440 543.63,440C661.565,439.835 690.423,487.373 692.325,520C693.318,537.031 683.579,550 683.579,550C624,536.486 571.153,551.438 517.473,580C469.829,605.35 430.317,646.109 394.935,680.214C338.575,734.541 307.468,780 307.468,780ZM438.669,446.995C438.669,465.209 454.313,479.995 473.582,479.995C492.851,479.995 508.495,465.209 508.495,446.995C508.495,444.595 508.223,442.255 507.707,440L439.457,440C438.941,442.255 438.669,444.595 438.669,446.995Z" style="fill:rgb(236,31,37);"/>
            </g>
        </g>
    </g>
</svg>
